<?xml version="1.0" encoding="utf-8"?>

<!DOCTYPE svg PUBLIC "-//W3C//DTD SVG 1.1//EN" "http://www.w3.org/Graphics/SVG/1.1/DTD/svg11.dtd">
<!-- Uploaded to: SVG Repo, www.svgrepo.com, Generator: SVG Repo Mixer Tools -->
<svg version="1.1" id="_x32_" xmlns="http://www.w3.org/2000/svg" xmlns:xlink="http://www.w3.org/1999/xlink" 
	 width="20px" height="20px" viewBox="0 0 512 512"  xml:space="preserve">
<style type="text/css">
<![CDATA[
	.st0{fill:#000000;}
]]>
</style>
<g>
	<path class="st0" d="M186.815,116.466c13.063,3.922,35.922-22.203,35.922-22.203s-20.469-18.484-32.656-30.688
		c-7.188-7.188-32.375-12.516-41.188-1.734c-3.516,4.297-19.578,18.063-19.578,18.063s-26.094,0-41.766,0
		s-24.828,6.531-27.438,14.359c-2.609,7.859-15.672,43.109-15.672,43.109l-44.438,6.531c0,0,1.609,44.297,1.609,59.969
		s7.219,28.406,30.047,31.344c19.422,2.5,41.828,6.859,41.828,6.859l11.375,20.797l133.219-102.859
		C218.081,160.013,207.706,137.372,186.815,116.466z"/>
	<path class="st0" d="M498.736,125.481c-9.578-2.594-19.422,3.063-22.031,12.625c-0.141,0.547-9.5,33.531-32.422,62.953
		c-14.078-11.094-31.187-17.688-49.515-17.688c-47.016,0-162.438,0-162.438,0L96.659,286.794l48.813,169.484h45.172l8.203-75.75
		c23.531,0,177.656,0,177.656,0l40.016,75.75h59.234c0,0,5.234-125.391,5.234-177.641c0-18.156-4.828-35.141-12.969-49.656
		c30.781-36.5,42.609-78.734,43.344-81.484C513.971,137.919,508.314,128.06,498.736,125.481z"/>
</g>
</svg>